<svg width="16" height="16" viewBox="0 0 16 16" fill="none" xmlns="http://www.w3.org/2000/svg">
<path d="M8.00129 9.9917C6.89655 9.9917 6.00098 10.8873 6.00098 11.992V15.9926H10.0016V11.992C10.0016 10.8873 9.10602 9.9917 8.00129 9.9917Z" fill="#18A0FB"/>
<path d="M11.3351 11.9919V15.9925H14.0022C15.1069 15.9925 16.0025 15.0969 16.0025 13.9922V7.9106C16.0026 7.56421 15.868 7.23134 15.6271 6.98246L9.96089 0.856826C8.96111 -0.224904 7.27372 -0.29132 6.19199 0.70846C6.14061 0.755967 6.0911 0.805443 6.04362 0.856826L0.387404 6.98046C0.139178 7.23037 -9.37172e-05 7.56836 4.73145e-08 7.92061V13.9922C4.73145e-08 15.0969 0.895576 15.9925 2.00031 15.9925H4.66738V11.9919C4.67985 10.1737 6.1478 8.68901 7.92016 8.64625C9.75182 8.60206 11.3211 10.1121 11.3351 11.9919Z" fill="#18A0FB"/>
<path d="M8.00129 9.9917C6.89655 9.9917 6.00098 10.8873 6.00098 11.992V15.9926H10.0016V11.992C10.0016 10.8873 9.10602 9.9917 8.00129 9.9917Z" fill="#18A0FB"/>
</svg>
